<?xml version="1.0" encoding="utf-8"?>
<svg width="513px" height="513px" viewBox="0 0 513 513" version="1.1" xmlns:xlink="http://www.w3.org/1999/xlink" xmlns="http://www.w3.org/2000/svg">
  <defs>
    <filter id="filter_1">
      <feColorMatrix in="SourceGraphic" type="matrix" values="0 0 0 0 0.8 0 0 0 0 1 0 0 0 0 1 0 0 0 1 0" />
    </filter>
    <filter id="filter_2">
      <feColorMatrix in="SourceGraphic" type="matrix" values="0 0 0 0 0.007843138 0 0 0 0 0.18431373 0 0 0 0 0.5882353 0 0 0 1 0" />
    </filter>
    <filter id="filter_3">
      <feColorMatrix in="SourceGraphic" type="matrix" values="0 0 0 0 0.1254902 0 0 0 0 0.4392157 0 0 0 0 0.8784314 0 0 0 1 0" />
    </filter>
    <path d="M0 0L513 0L513 513L0 513L0 0L0 0Z" id="path_1" />
    <path d="M0 0L512.024 0L512.024 512.024L0 512.024L0 0L0 0L0 0Z" id="path_2" />
    <clipPath id="mask_1">
      <use xlink:href="#path_1" />
    </clipPath>
    <clipPath id="mask_2">
      <use xlink:href="#path_2" />
    </clipPath>
  </defs>
  <g id="brandicon">
    <g id="brandicon2">
      <path d="M0 0L513 0L513 513L0 513L0 0L0 0Z" id="Background" fill="none" fill-rule="evenodd" stroke="none" />
      <g id="Mask-group">
        <path d="M0 0L513 0L513 513L0 513L0 0L0 0Z" id="path_1" fill="none" fill-rule="evenodd" stroke="none" />
        <g clip-path="url(#mask_1)">
          <g id="Group">
            <g id="brandicon" filter="url(#filter_2)">
              <path d="M0 0L512.024 0L512.024 512.024L0 512.024L0 0L0 0L0 0Z" id="Background#1" fill="none" fill-rule="evenodd" stroke="none" />
              <g id="Mask-group" filter="url(#filter_3)">
                <path d="M0 0L512.024 0L512.024 512.024L0 512.024L0 0L0 0L0 0Z" id="path_1#1" fill="none" fill-rule="evenodd" stroke="none" />
                <g id="Mask-group">
                  <path d="M0 0L512.024 0L512.024 512.024L0 512.024L0 0L0 0L0 0Z" id="path_2" fill="none" fill-rule="evenodd" stroke="none" />
                  <g clip-path="url(#mask_2)">
                    <g id="Group" transform="translate(0.00021381449 16.025574)" filter="url(#filter_2)">
                      <g id="Group" filter="url(#filter_1)">
                        <g id="Group#1" transform="translate(0.023773002 143.97243)" filter="url(#filter_1)">
                          <g id="Group#2" filter="url(#filter_1)">
                            <path d="M496 0L16 0C7.168 0 0 7.168 0 16C0 24.832 7.168 32 16 32L496 32C504.832 32 512 24.832 512 16C512 7.168 504.832 0 496 0L496 0L496 0L496 0Z" id="Shape" fill="#000000" fill-rule="evenodd" stroke="none" />
                          </g>
                        </g>
                        <g id="Group#3" transform="translate(112.02011 0.2124176)" filter="url(#filter_1)">
                          <g id="Group#4" filter="url(#filter_1)">
                            <path d="M283.972 149.136L155.972 5.136C149.892 -1.712 138.084 -1.712 132.036 5.136L4.03569 149.136C-1.82034 155.728 -1.24432 165.872 5.37968 171.728C11.9717 177.584 22.0837 177.008 27.9717 170.384L144.004 39.824L260.036 170.384C263.204 173.936 267.588 175.76 272.004 175.76C275.78 175.76 279.588 174.416 282.628 171.728C289.22 165.84 289.86 155.728 283.972 149.136L283.972 149.136L283.972 149.136L283.972 149.136Z" id="Shape#1" fill="#000000" fill-rule="evenodd" stroke="none" />
                          </g>
                        </g>
                        <g id="Group#5" filter="url(#filter_1)">
                          <g id="Group#6" filter="url(#filter_1)">
                            <path d="M508.024 149.444L396.024 21.4444C393.464 18.5004 389.88 16.5804 386.008 16.1004L258.008 0.10043C256.76 -0.0275707 255.608 -0.0275707 254.424 0.0684299L94.4238 16.0684C89.4958 16.5484 85.0798 19.3004 82.4558 23.4924L2.45578 151.492C-1.16022 157.22 -0.74422 164.58 3.44778 169.892L243.448 473.892C246.488 477.732 251.128 479.972 256.024 479.972C260.92 479.972 265.56 477.732 268.568 473.892L508.568 169.892C513.336 163.844 513.112 155.236 508.024 149.444L508.024 149.444L508.024 149.444L508.024 149.444ZM256.024 438.148L35.5438 158.884L105.432 47.0764L255.832 32.0364L375.992 47.0764L475.224 160.484L256.024 438.148L256.024 438.148L256.024 438.148L256.024 438.148Z" id="Shape#2" fill="#000000" fill-rule="evenodd" stroke="none" />
                          </g>
                        </g>
                        <g id="Group#7" transform="translate(112.01477 143.99036)" filter="url(#filter_1)">
                          <g id="Group#8" filter="url(#filter_1)">
                            <path d="M158.761 313.774L30.761 9.77408C27.305 1.61407 17.865 -2.12993 9.80102 1.23007C1.64102 4.65407 -2.16698 14.0301 1.25702 22.1901L129.257 326.19C131.849 332.302 137.769 335.982 144.009 335.982C146.057 335.982 148.201 335.566 150.217 334.734C158.345 331.31 162.185 321.934 158.761 313.774L158.761 313.774L158.761 313.774L158.761 313.774Z" id="Shape#3" fill="#000000" fill-rule="evenodd" stroke="none" />
                          </g>
                        </g>
                        <g id="Group#9" transform="translate(240.01477 143.9544)" filter="url(#filter_1)">
                          <g id="Group#10" filter="url(#filter_1)">
                            <path d="M150.217 1.26602C141.993 -2.18997 132.681 1.68202 129.257 9.81003L1.25702 313.81C-2.16698 321.97 1.64102 331.346 9.80103 334.77C11.817 335.602 13.929 336.018 16.009 336.018C22.249 336.018 28.169 332.338 30.761 326.226L158.761 22.226C162.185 14.066 158.345 4.69002 150.217 1.26602L150.217 1.26602L150.217 1.26602L150.217 1.26602Z" id="Shape#4" fill="#000000" fill-rule="evenodd" stroke="none" />
                          </g>
                        </g>
                        <g id="Group#11" transform="translate(80.04167 15.960342)" filter="url(#filter_1)">
                          <g id="Group#12" filter="url(#filter_1)">
                            <path d="M63.5021 140.14L31.5021 12.1401C29.3581 3.56409 20.6221 -1.68391 12.1101 0.492088C3.53411 2.63608 -1.68188 11.3401 0.494118 19.8841L32.4941 147.884C34.2861 155.18 40.8141 160.012 47.9821 160.012C49.2621 160.012 50.5741 159.852 51.8541 159.532C60.4301 157.388 65.6461 148.716 63.5021 140.14L63.5021 140.14L63.5021 140.14L63.5021 140.14Z" id="Shape#5" fill="#000000" fill-rule="evenodd" stroke="none" />
                          </g>
                        </g>
                        <g id="Group#13" transform="translate(368.02377 15.972427)" filter="url(#filter_1)">
                          <g id="Group#14" filter="url(#filter_1)">
                            <path d="M16 0C7.168 0 0 7.168 0 16L0 144C0 152.832 7.168 160 16 160C24.832 160 32 152.832 32 144L32 16C32 7.168 24.832 0 16 0L16 0L16 0L16 0Z" id="Shape#6" fill="#000000" fill-rule="evenodd" stroke="none" />
                          </g>
                        </g>
                      </g>
                    </g>
                  </g>
                </g>
              </g>
            </g>
          </g>
        </g>
      </g>
    </g>
  </g>
</svg>